<svg width="20" height="20" viewBox="0 0 20 20" fill="none" xmlns="http://www.w3.org/2000/svg">
<path fill-rule="evenodd" clip-rule="evenodd" d="M9.91824 12.6719C9.42671 12.8261 9.67231 13.463 10.1015 13.3417C10.5406 13.2176 10.3466 12.5375 9.91824 12.6719ZM18.9743 19L18.9842 18.0991C18.9936 17.6735 19.036 16.4872 18.9253 16.163C18.717 15.5534 18.1714 15.4529 17.5844 15.4699C17.5713 14.3689 17.8193 13.231 17.0736 12.802C16.7562 12.6193 16.5647 12.6896 16.1777 12.6442C16.1852 12.2399 16.2248 10.9179 16.1406 10.6128C16.0589 10.3166 15.8948 10.1434 15.7068 10.0161C15.4184 9.82088 15.2314 9.85124 14.8545 9.83727C14.872 9.51612 14.9663 9.15575 14.9862 8.78665C15.0456 7.687 14.8413 6.64479 14.4531 5.65716C14.3423 5.37531 14.2133 5.08776 14.0731 4.84065C13.9501 4.62411 13.7752 4.21489 13.5269 4.15864C13.1069 4.0634 13.118 4.50611 13.0161 4.794C12.9397 5.00977 12.7724 5.34916 12.6105 5.52147C12.5675 5.5672 12.6041 5.53856 12.552 5.5754C12.6167 4.54289 12.5154 3.6415 12.0963 2.83313C11.3574 1.40774 9.38804 0.431969 9.47641 1.37036C9.48767 1.48982 9.66763 1.79129 9.73112 1.91868C10.3614 3.18281 9.23775 3.77115 8.81714 4.76611C8.69803 4.67713 8.52695 4.26084 8.17133 3.93925C7.93052 3.72147 7.53069 3.30567 7.22817 3.48407C6.91773 3.66717 7.17691 4.21046 7.14503 4.66607C7.02667 6.3582 4.76464 7.09597 5.02398 9.21847C5.05058 9.43625 5.13475 9.6572 5.1495 9.83997C4.59787 9.83997 4.04867 9.93397 3.86009 10.6134C3.77792 10.9093 3.81593 12.2486 3.82331 12.6445C3.43334 12.6876 3.25375 12.6066 2.92748 12.8013C2.73223 12.9178 2.54042 13.1349 2.46358 13.4023C2.35399 13.7834 2.43455 14.9672 2.41479 15.4673C1.93467 15.462 1.4622 15.4617 1.15957 15.9807C0.925009 16.3831 1.01989 17.7814 1.01478 18.4568C1.01246 18.7652 1.06491 18.9636 1.37524 18.9824C1.92681 19.0156 2.60078 18.9818 3.16609 18.9818C6.38156 18.9816 18.974 18.9999 18.974 18.9999L18.9743 19ZM1.72375 18.2723L18.2775 18.2787C18.3104 17.887 18.2843 17.3901 18.2843 16.9939C18.2843 16.5383 18.3565 16.1724 17.8326 16.1701L2.20263 16.1703C1.63689 16.17 1.71761 16.4634 1.71772 16.9607C1.71782 17.3669 1.69025 17.8793 1.72369 18.2723H1.72375ZM8.19513 10.5452C7.244 10.5629 6.27591 10.5465 5.32289 10.5463C4.36196 10.5461 4.52582 10.4416 4.52598 12.6507C5.542 12.6951 6.6521 12.6547 7.67851 12.6547C8.00138 12.6547 8.94234 12.5107 8.75398 13.1196C8.63723 13.4969 7.82422 13.3583 7.41309 13.3583L3.43135 13.3645C3.16943 13.4041 3.12053 13.5931 3.12102 13.8699C3.12193 14.401 3.1138 14.938 3.12365 15.4683L16.878 15.4667C16.8869 14.9474 16.8775 14.424 16.8805 13.9035C16.882 13.6225 16.8574 13.4217 16.6012 13.3694L11.8255 13.3585C10.9174 13.3622 11.2229 12.7219 11.5085 12.6639L15.4762 12.6505C15.4842 10.439 15.6266 10.5462 14.6791 10.5464C10.8965 10.5469 12.3893 10.5436 8.19519 10.5453L8.19513 10.5452ZM7.87759 4.66737C7.84555 4.72081 7.79014 5.16304 7.70317 5.42202C7.62891 5.64314 7.50969 5.86792 7.40183 6.04977C7.16441 6.45015 6.84493 6.79601 6.58155 7.12359C6.30903 7.46254 6.00236 7.76677 5.82234 8.2564C5.63602 8.76314 5.70613 9.39866 5.92304 9.83911L7.4602 9.83895C7.44437 8.87898 7.67059 8.49267 8.10176 7.91459C8.14715 7.85376 8.33622 7.64262 8.41252 7.59537C8.59932 7.47969 8.81698 7.58216 8.89145 7.70388C9.03582 7.93994 8.95585 8.3799 9.24131 8.64605C9.37329 8.53312 9.63607 8.19934 9.76612 7.98616C10.3725 6.99157 10.0733 6.24198 10.2185 6.01299C10.6874 5.27333 11.7266 7.22476 11.9 7.6835C12.0141 7.98545 12.1012 8.32026 12.1497 8.65937C12.2098 9.07971 12.1482 9.48133 12.1911 9.839C12.5045 9.84315 13.9494 9.90755 14.1099 9.81047C14.2352 9.60915 14.2786 8.93965 14.2903 8.65371C14.3077 8.22631 14.2796 7.80883 14.2129 7.39605C14.1254 6.85393 13.8028 5.73158 13.5433 5.37866C13.4224 5.54088 13.3396 5.78983 13.083 6.05948C12.8877 6.26474 11.8802 7.28204 11.7142 6.54114C11.66 6.29915 12.3618 4.12218 11.1574 2.67743C11.0092 2.49957 10.7416 2.19691 10.5355 2.10188C10.9087 4.1897 9.40393 4.06793 9.17426 6.02852C9.15623 6.18266 9.16603 6.45512 9.13156 6.58568C9.0474 6.90447 8.50713 6.95009 8.44844 6.52177C8.38043 6.02567 8.41737 5.19821 7.87753 4.66726L7.87759 4.66737ZM8.24171 9.83959L11.4072 9.84407C11.4991 9.8012 11.4842 9.72947 11.4898 9.51898C11.4936 9.37228 11.4932 9.2326 11.4842 9.08597C11.4488 8.5068 11.1516 7.44642 10.8354 7.16738C10.6279 8.04996 10.1573 8.83767 9.55885 9.30714C9.393 9.43727 9.35294 9.52901 9.07685 9.45172C8.85457 9.38949 8.52329 8.94515 8.44564 8.67523C8.43944 8.68186 8.43051 8.68316 8.42781 8.69572L8.36637 8.77964C8.34203 8.81976 8.3199 8.86911 8.30121 8.91317C8.21926 9.10603 8.13041 9.5282 8.16019 9.72035C8.18544 9.88339 8.14715 9.81274 8.24171 9.83954V9.83959Z" fill="#262525"/>
<path fill-rule="evenodd" clip-rule="evenodd" d="M9.91824 12.6719C9.42671 12.8261 9.67231 13.463 10.1015 13.3417C10.5406 13.2176 10.3466 12.5375 9.91824 12.6719ZM18.9743 19L18.9842 18.0991C18.9936 17.6735 19.036 16.4872 18.9253 16.163C18.717 15.5534 18.1714 15.4529 17.5844 15.4699C17.5713 14.3689 17.8193 13.231 17.0736 12.802C16.7562 12.6193 16.5647 12.6896 16.1777 12.6442C16.1852 12.2399 16.2248 10.9179 16.1406 10.6128C16.0589 10.3166 15.8948 10.1434 15.7068 10.0161C15.4184 9.82088 15.2314 9.85124 14.8545 9.83727C14.872 9.51612 14.9663 9.15575 14.9862 8.78665C15.0456 7.687 14.8413 6.64479 14.4531 5.65716C14.3423 5.37531 14.2133 5.08776 14.0731 4.84065C13.9501 4.62411 13.7752 4.21489 13.5269 4.15864C13.1069 4.0634 13.118 4.50611 13.0161 4.794C12.9397 5.00977 12.7724 5.34916 12.6105 5.52147C12.5675 5.5672 12.6041 5.53856 12.552 5.5754C12.6167 4.54289 12.5154 3.6415 12.0963 2.83313C11.3574 1.40774 9.38804 0.431969 9.47641 1.37036C9.48767 1.48982 9.66763 1.79129 9.73112 1.91868C10.3614 3.18281 9.23775 3.77115 8.81714 4.76611C8.69803 4.67713 8.52695 4.26084 8.17133 3.93925C7.93052 3.72147 7.53069 3.30567 7.22817 3.48407C6.91773 3.66717 7.17691 4.21046 7.14503 4.66607C7.02667 6.3582 4.76464 7.09597 5.02398 9.21847C5.05058 9.43625 5.13475 9.6572 5.1495 9.83997C4.59787 9.83997 4.04867 9.93397 3.86009 10.6134C3.77792 10.9093 3.81593 12.2486 3.82331 12.6445C3.43334 12.6876 3.25375 12.6066 2.92748 12.8013C2.73223 12.9178 2.54042 13.1349 2.46358 13.4023C2.35399 13.7834 2.43455 14.9672 2.41479 15.4673C1.93467 15.462 1.4622 15.4617 1.15957 15.9807C0.925009 16.3831 1.01989 17.7814 1.01478 18.4568C1.01246 18.7652 1.06491 18.9636 1.37524 18.9824C1.92681 19.0156 2.60078 18.9818 3.16609 18.9818C6.38156 18.9816 18.974 18.9999 18.974 18.9999L18.9743 19ZM1.72375 18.2723L18.2775 18.2787C18.3104 17.887 18.2843 17.3901 18.2843 16.9939C18.2843 16.5383 18.3565 16.1724 17.8326 16.1701L2.20263 16.1703C1.63689 16.17 1.71761 16.4634 1.71772 16.9607C1.71782 17.3669 1.69025 17.8793 1.72369 18.2723H1.72375ZM8.19513 10.5452C7.244 10.5629 6.27591 10.5465 5.32289 10.5463C4.36196 10.5461 4.52582 10.4416 4.52598 12.6507C5.542 12.6951 6.6521 12.6547 7.67851 12.6547C8.00138 12.6547 8.94234 12.5107 8.75398 13.1196C8.63723 13.4969 7.82422 13.3583 7.41309 13.3583L3.43135 13.3645C3.16943 13.4041 3.12053 13.5931 3.12102 13.8699C3.12193 14.401 3.1138 14.938 3.12365 15.4683L16.878 15.4667C16.8869 14.9474 16.8775 14.424 16.8805 13.9035C16.882 13.6225 16.8574 13.4217 16.6012 13.3694L11.8255 13.3585C10.9174 13.3622 11.2229 12.7219 11.5085 12.6639L15.4762 12.6505C15.4842 10.439 15.6266 10.5462 14.6791 10.5464C10.8965 10.5469 12.3893 10.5436 8.19519 10.5453L8.19513 10.5452ZM7.87759 4.66737C7.84555 4.72081 7.79014 5.16304 7.70317 5.42202C7.62891 5.64314 7.50969 5.86792 7.40183 6.04977C7.16441 6.45015 6.84493 6.79601 6.58155 7.12359C6.30903 7.46254 6.00236 7.76677 5.82234 8.2564C5.63602 8.76314 5.70613 9.39866 5.92304 9.83911L7.4602 9.83895C7.44437 8.87898 7.67059 8.49267 8.10176 7.91459C8.14715 7.85376 8.33622 7.64262 8.41252 7.59537C8.59932 7.47969 8.81698 7.58216 8.89145 7.70388C9.03582 7.93994 8.95585 8.3799 9.24131 8.64605C9.37329 8.53312 9.63607 8.19934 9.76612 7.98616C10.3725 6.99157 10.0733 6.24198 10.2185 6.01299C10.6874 5.27333 11.7266 7.22476 11.9 7.6835C12.0141 7.98545 12.1012 8.32026 12.1497 8.65937C12.2098 9.07971 12.1482 9.48133 12.1911 9.839C12.5045 9.84315 13.9494 9.90755 14.1099 9.81047C14.2352 9.60915 14.2786 8.93965 14.2903 8.65371C14.3077 8.22631 14.2796 7.80883 14.2129 7.39605C14.1254 6.85393 13.8028 5.73158 13.5433 5.37866C13.4224 5.54088 13.3396 5.78983 13.083 6.05948C12.8877 6.26474 11.8802 7.28204 11.7142 6.54114C11.66 6.29915 12.3618 4.12218 11.1574 2.67743C11.0092 2.49957 10.7416 2.19691 10.5355 2.10188C10.9087 4.1897 9.40393 4.06793 9.17426 6.02852C9.15623 6.18266 9.16603 6.45512 9.13156 6.58568C9.0474 6.90447 8.50713 6.95009 8.44844 6.52177C8.38043 6.02567 8.41737 5.19821 7.87753 4.66726L7.87759 4.66737ZM8.24171 9.83959L11.4072 9.84407C11.4991 9.8012 11.4842 9.72947 11.4898 9.51898C11.4936 9.37228 11.4932 9.2326 11.4842 9.08597C11.4488 8.5068 11.1516 7.44642 10.8354 7.16738C10.6279 8.04996 10.1573 8.83767 9.55885 9.30714C9.393 9.43727 9.35294 9.52901 9.07685 9.45172C8.85457 9.38949 8.52329 8.94515 8.44564 8.67523C8.43944 8.68186 8.43051 8.68316 8.42781 8.69572L8.36637 8.77964C8.34203 8.81976 8.3199 8.86911 8.30121 8.91317C8.21926 9.10603 8.13041 9.5282 8.16019 9.72035C8.18544 9.88339 8.14715 9.81274 8.24171 9.83954V9.83959Z" stroke="#262525" stroke-width="0.2"/>
<path fill-rule="evenodd" clip-rule="evenodd" d="M9.91824 12.6719C9.42671 12.8261 9.67231 13.463 10.1015 13.3417C10.5406 13.2176 10.3466 12.5375 9.91824 12.6719ZM18.9743 19L18.9842 18.0991C18.9936 17.6735 19.036 16.4872 18.9253 16.163C18.717 15.5534 18.1714 15.4529 17.5844 15.4699C17.5713 14.3689 17.8193 13.231 17.0736 12.802C16.7562 12.6193 16.5647 12.6896 16.1777 12.6442C16.1852 12.2399 16.2248 10.9179 16.1406 10.6128C16.0589 10.3166 15.8948 10.1434 15.7068 10.0161C15.4184 9.82088 15.2314 9.85124 14.8545 9.83727C14.872 9.51612 14.9663 9.15575 14.9862 8.78665C15.0456 7.687 14.8413 6.64479 14.4531 5.65716C14.3423 5.37531 14.2133 5.08776 14.0731 4.84065C13.9501 4.62411 13.7752 4.21489 13.5269 4.15864C13.1069 4.0634 13.118 4.50611 13.0161 4.794C12.9397 5.00977 12.7724 5.34916 12.6105 5.52147C12.5675 5.5672 12.6041 5.53856 12.552 5.5754C12.6167 4.54289 12.5154 3.6415 12.0963 2.83313C11.3574 1.40774 9.38804 0.431969 9.47641 1.37036C9.48767 1.48982 9.66763 1.79129 9.73112 1.91868C10.3614 3.18281 9.23775 3.77115 8.81714 4.76611C8.69803 4.67713 8.52695 4.26084 8.17133 3.93925C7.93052 3.72147 7.53069 3.30567 7.22817 3.48407C6.91773 3.66717 7.17691 4.21046 7.14503 4.66607C7.02667 6.3582 4.76464 7.09597 5.02398 9.21847C5.05058 9.43625 5.13475 9.6572 5.1495 9.83997C4.59787 9.83997 4.04867 9.93397 3.86009 10.6134C3.77792 10.9093 3.81593 12.2486 3.82331 12.6445C3.43334 12.6876 3.25375 12.6066 2.92748 12.8013C2.73223 12.9178 2.54042 13.1349 2.46358 13.4023C2.35399 13.7834 2.43455 14.9672 2.41479 15.4673C1.93467 15.462 1.4622 15.4617 1.15957 15.9807C0.925009 16.3831 1.01989 17.7814 1.01478 18.4568C1.01246 18.7652 1.06491 18.9636 1.37524 18.9824C1.92681 19.0156 2.60078 18.9818 3.16609 18.9818C6.38156 18.9816 18.974 18.9999 18.974 18.9999L18.9743 19ZM1.72375 18.2723L18.2775 18.2787C18.3104 17.887 18.2843 17.3901 18.2843 16.9939C18.2843 16.5383 18.3565 16.1724 17.8326 16.1701L2.20263 16.1703C1.63689 16.17 1.71761 16.4634 1.71772 16.9607C1.71782 17.3669 1.69025 17.8793 1.72369 18.2723H1.72375ZM8.19513 10.5452C7.244 10.5629 6.27591 10.5465 5.32289 10.5463C4.36196 10.5461 4.52582 10.4416 4.52598 12.6507C5.542 12.6951 6.6521 12.6547 7.67851 12.6547C8.00138 12.6547 8.94234 12.5107 8.75398 13.1196C8.63723 13.4969 7.82422 13.3583 7.41309 13.3583L3.43135 13.3645C3.16943 13.4041 3.12053 13.5931 3.12102 13.8699C3.12193 14.401 3.1138 14.938 3.12365 15.4683L16.878 15.4667C16.8869 14.9474 16.8775 14.424 16.8805 13.9035C16.882 13.6225 16.8574 13.4217 16.6012 13.3694L11.8255 13.3585C10.9174 13.3622 11.2229 12.7219 11.5085 12.6639L15.4762 12.6505C15.4842 10.439 15.6266 10.5462 14.6791 10.5464C10.8965 10.5469 12.3893 10.5436 8.19519 10.5453L8.19513 10.5452ZM7.87759 4.66737C7.84555 4.72081 7.79014 5.16304 7.70317 5.42202C7.62891 5.64314 7.50969 5.86792 7.40183 6.04977C7.16441 6.45015 6.84493 6.79601 6.58155 7.12359C6.30903 7.46254 6.00236 7.76677 5.82234 8.2564C5.63602 8.76314 5.70613 9.39866 5.92304 9.83911L7.4602 9.83895C7.44437 8.87898 7.67059 8.49267 8.10176 7.91459C8.14715 7.85376 8.33622 7.64262 8.41252 7.59537C8.59932 7.47969 8.81698 7.58216 8.89145 7.70388C9.03582 7.93994 8.95585 8.3799 9.24131 8.64605C9.37329 8.53312 9.63607 8.19934 9.76612 7.98616C10.3725 6.99157 10.0733 6.24198 10.2185 6.01299C10.6874 5.27333 11.7266 7.22476 11.9 7.6835C12.0141 7.98545 12.1012 8.32026 12.1497 8.65937C12.2098 9.07971 12.1482 9.48133 12.1911 9.839C12.5045 9.84315 13.9494 9.90755 14.1099 9.81047C14.2352 9.60915 14.2786 8.93965 14.2903 8.65371C14.3077 8.22631 14.2796 7.80883 14.2129 7.39605C14.1254 6.85393 13.8028 5.73158 13.5433 5.37866C13.4224 5.54088 13.3396 5.78983 13.083 6.05948C12.8877 6.26474 11.8802 7.28204 11.7142 6.54114C11.66 6.29915 12.3618 4.12218 11.1574 2.67743C11.0092 2.49957 10.7416 2.19691 10.5355 2.10188C10.9087 4.1897 9.40393 4.06793 9.17426 6.02852C9.15623 6.18266 9.16603 6.45512 9.13156 6.58568C9.0474 6.90447 8.50713 6.95009 8.44844 6.52177C8.38043 6.02567 8.41737 5.19821 7.87753 4.66726L7.87759 4.66737ZM8.24171 9.83959L11.4072 9.84407C11.4991 9.8012 11.4842 9.72947 11.4898 9.51898C11.4936 9.37228 11.4932 9.2326 11.4842 9.08597C11.4488 8.5068 11.1516 7.44642 10.8354 7.16738C10.6279 8.04996 10.1573 8.83767 9.55885 9.30714C9.393 9.43727 9.35294 9.52901 9.07685 9.45172C8.85457 9.38949 8.52329 8.94515 8.44564 8.67523C8.43944 8.68186 8.43051 8.68316 8.42781 8.69572L8.36637 8.77964C8.34203 8.81976 8.3199 8.86911 8.30121 8.91317C8.21926 9.10603 8.13041 9.5282 8.16019 9.72035C8.18544 9.88339 8.14715 9.81274 8.24171 9.83954V9.83959Z" stroke="black" stroke-opacity="0.2" stroke-width="0.2"/>
</svg>
