<svg width="24" height="19" viewBox="0 0 24 19" fill="none" xmlns="http://www.w3.org/2000/svg">
<path d="M14.1992 1.4967V4.05703" stroke="#262525" stroke-width="1.5" stroke-linecap="round" stroke-linejoin="round"/>
<path d="M14.1992 15.7899V17.9313" stroke="#262525" stroke-width="1.5" stroke-linecap="round" stroke-linejoin="round"/>
<path d="M14.1992 12.1551V7.05457" stroke="#262525" stroke-width="1.5" stroke-linecap="round" stroke-linejoin="round"/>
<path fill-rule="evenodd" clip-rule="evenodd" d="M19.5245 18.1597C21.5241 18.1597 23.1437 16.6177 23.1437 14.714V11.9712C21.8205 11.9712 20.7549 10.9566 20.7549 9.69691C20.7549 8.43719 21.8205 7.42156 23.1437 7.42156L23.1425 4.67764C23.1425 2.77389 21.5218 1.23193 19.5233 1.23193H4.81531C2.81685 1.23193 1.19611 2.77389 1.19611 4.67764L1.19496 7.51092C2.51811 7.51092 3.58373 8.43719 3.58373 9.69691C3.58373 10.9566 2.51811 11.9712 1.19496 11.9712V14.714C1.19496 16.6177 2.81456 18.1597 4.81416 18.1597H19.5245Z" stroke="#262525" stroke-width="1.5" stroke-linecap="round" stroke-linejoin="round"/>
</svg>
